# xmcd
#
# Track frame offsets:
#	150
#	11806
#	29812
#	55358
#	74563
#
# Disc length: 1197 seconds
#
# Revision: 1
# Processed by: cddbd v1.4PL0 Copyright (c) Steve Scherf et al.
# Submitted via: audiograbber 1.81.01
#
DISCID=4a04ab05
DTITLE=Mel Edmondson - First Takes
DYEAR=2001
DGENRE=Blues
TTITLE0=You upset me baby
TTITLE1=Midnight Train
TTITLE2=Danger Zone
TTITLE3=More than one way home
TTITLE4=Hand it over
EXTD=Maxi
EXTT0=
EXTT1=
EXTT2=
EXTT3=
EXTT4=
PLAYORDER=
